<?xml version="1.0" standalone="no"?>
<!DOCTYPE svg PUBLIC "-//W3C//DTD SVG 20010904//EN" "http://www.w3.org/TR/2001/REC-SVG-20010904/DTD/svg10.dtd">
<svg version="1.0" xmlns="http://www.w3.org/2000/svg"
  width="512.000000pt" height="512.000000pt" viewBox="0 0 512.000000 512.000000"
  preserveAspectRatio="xMidYMid meet">

  <g transform="translate(0.000000,512.000000) scale(0.100000,-0.100000)"
    fill="#FF0000" stroke="none">
    <path
      d="M2360 4999 c-370 -42 -748 -201 -1040 -436 -109 -88 -284 -274 -362
-383 -72 -102 -181 -310 -221 -425 -63 -178 -105 -468 -92 -630 24 -302 113
-588 300 -963 251 -504 632 -1049 1166 -1667 170 -197 436 -485 448 -485 17 0
337 349 546 595 740 873 1201 1658 1334 2270 89 407 9 848 -218 1215 -115 184
-303 386 -486 522 -397 295 -911 439 -1375 387z m409 -970 c102 -25 262 -107
336 -170 138 -118 241 -283 286 -454 29 -112 30 -298 0 -410 -44 -169 -150
-337 -286 -454 -74 -64 -233 -144 -340 -172 -112 -29 -298 -30 -410 0 -240 62
-446 228 -555 446 -71 141 -92 230 -92 385 0 155 21 244 92 385 125 251 371
426 651 465 86 12 226 3 318 -21z" />
  </g>
</svg>