<svg width="34" height="34" viewBox="0 0 34 34" fill="#000" xmlns="http://www.w3.org/2000/svg">
  <g id="eva:arrow-back-fill">
    <g id="evaArrowBackFill0">
      <g id="evaArrowBackFill1">
        <path id="evaArrowBackFill2"
          d="M21.3731 13.7164L21.4216 14.2476L21.9378 19.8972L21.3731 13.7164ZM21.3731 13.7164L20.9959 14.0936M21.3731 13.7164L20.9959 14.0936M20.9959 14.0936L12.6096 22.4799C12.4689 22.6205 12.2782 22.6995 12.0792 22.6995C11.8803 22.6995 11.6896 22.6205 11.5489 22.4799C11.4083 22.3392 11.3292 22.1485 11.3292 21.9495C11.3292 21.7506 11.4083 21.5599 11.5489 21.4192L19.9352 13.0329L20.3124 12.6557L19.7812 12.6072L14.1314 12.091L14.1313 12.091C14.033 12.0821 13.9375 12.0538 13.8502 12.0079C13.7629 11.962 13.6855 11.8993 13.6224 11.8235C13.5594 11.7476 13.5119 11.6601 13.4827 11.5658C13.4536 11.4716 13.4433 11.3725 13.4525 11.2743M20.9959 14.0936L13.4935 10.6358M13.4935 10.6358C13.3279 10.8007 13.2253 11.0184 13.2035 11.251M13.4935 10.6358L20.9237 14.2931L20.9426 14.5004L12.7863 22.6567C12.5988 22.8442 12.3445 22.9495 12.0792 22.9495C11.814 22.9495 11.5597 22.8442 11.3721 22.6567C11.1846 22.4691 11.0792 22.2148 11.0792 21.9495C11.0792 21.6843 11.1846 21.43 11.3721 21.2424L19.5284 13.0862L19.7357 13.1051L19.7584 12.8562L19.5816 12.6794L19.4345 12.8266L14.1086 12.34C13.9776 12.3281 13.8503 12.2904 13.7339 12.2292C13.6174 12.168 13.5142 12.0844 13.4302 11.9833C13.3461 11.8821 13.2828 11.7654 13.2439 11.6397C13.205 11.5141 13.1913 11.382 13.2035 11.251M13.4935 10.6358C13.5972 10.5318 13.7225 10.4519 13.8606 10.4018C13.9987 10.3517 14.1462 10.3326 14.2925 10.3459L22.0707 11.053M13.2035 11.251L13.4525 11.2743M13.2035 11.251L13.4524 11.2743C13.4525 11.2743 13.4525 11.2743 13.4525 11.2743M22.0707 11.053L22.028 11.2994C22.0311 11.2999 22.0343 11.3005 22.0374 11.301M22.0707 11.053L22.048 11.302L22.0374 11.301M22.0707 11.053C22.1282 11.063 22.1849 11.0772 22.2404 11.0955L22.2401 11.349M22.0374 11.301L14.2699 10.5949L14.2698 10.5949C14.1601 10.5849 14.0495 10.5992 13.9459 10.6368C13.8423 10.6743 13.7483 10.7343 13.6705 10.8123L13.6699 10.813C13.5457 10.9366 13.4688 11.0998 13.4525 11.2743M22.0374 11.301C22.0796 11.3088 22.1213 11.3194 22.1621 11.3329L22.2206 11.3522L22.2401 11.349M22.2401 11.349L22.2824 11.3673C22.3666 11.4038 22.4435 11.4555 22.5091 11.5197C22.5598 11.5715 22.6027 11.6303 22.6365 11.6942C22.6366 11.7361 22.6427 11.7814 22.6607 11.8274C22.6743 11.862 22.6928 11.8911 22.71 11.9137C22.717 11.9393 22.723 11.9653 22.7278 11.9914L23.4339 19.7589L23.4339 19.7593C23.4522 19.9577 23.3909 20.1552 23.2636 20.3084C23.1362 20.4617 22.9532 20.558 22.7548 20.5763C22.5564 20.5946 22.3589 20.5333 22.2056 20.406C22.0525 20.2787 21.9561 20.0957 21.9378 19.8974L22.2401 11.349ZM22.2401 11.349L22.2387 11.3483L22.205 11.3147C22.1986 11.3082 22.1964 11.3062 22.1964 11.3061C22.1964 11.3061 22.1975 11.3071 22.199 11.3083C22.2007 11.3098 22.2031 11.3116 22.206 11.3136C22.2134 11.3188 22.2244 11.3254 22.2385 11.3309C22.2569 11.3381 22.2722 11.3403 22.2813 11.3408C22.2869 11.3412 22.2901 11.3409 22.2901 11.3409C22.2902 11.3409 22.2875 11.3411 22.2815 11.3421L22.2401 11.349Z"
          fill="#000" stroke="#000" stroke-width="1" />
      </g>
    </g>
  </g>
</svg>