<svg width="28" height="28" viewBox="0 0 28 28" fill="#000" xmlns="http://www.w3.org/2000/svg">
  <g id="eva:arrow-back-fill">
    <g id="evaArrowBackFill0">
      <g id="evaArrowBackFill1">
        <path id="evaArrowBackFill2"
          d="M7.95302 13.0418L8.32692 12.5927L12.3033 7.81671L7.95302 13.0418ZM7.95302 13.0418H8.53738M7.95302 13.0418H8.53738M8.53738 13.0418H21.5295C21.7474 13.0418 21.9563 13.1284 22.1104 13.2824C22.2645 13.4365 22.3511 13.6455 22.3511 13.8634C22.3511 14.0813 22.2645 14.2903 22.1104 14.4444C21.9563 14.5984 21.7474 14.685 21.5295 14.685H8.53738H7.95302L8.32692 15.1341L12.3034 19.9103L12.3035 19.9104C12.3727 19.9934 12.4248 20.0892 12.4569 20.1924C12.4889 20.2956 12.5004 20.4041 12.4904 20.5117C12.4805 20.6193 12.4495 20.7239 12.3991 20.8195C12.3486 20.9151 12.2799 20.9998 12.1967 21.0688M8.53738 13.0418L11.6704 21.5316M11.6704 21.5316C11.9263 21.5321 12.1744 21.4429 12.3715 21.2796M11.6704 21.5316L8.74785 12.9432L8.89374 12.7679H21.5295C21.82 12.7679 22.0986 12.8834 22.3041 13.0888C22.5095 13.2942 22.6249 13.5729 22.6249 13.8634C22.6249 14.1539 22.5095 14.4326 22.3041 14.638C22.0986 14.8434 21.82 14.9589 21.5295 14.9589H8.89374L8.74785 14.7836L8.53738 14.9589V15.2327H8.76539L12.5139 19.735C12.6061 19.8457 12.6756 19.9735 12.7184 20.1111C12.7612 20.2487 12.7764 20.3934 12.7631 20.5369C12.7499 20.6804 12.7085 20.8198 12.6413 20.9473C12.5741 21.0747 12.4824 21.1877 12.3715 21.2796M11.6704 21.5316C11.5094 21.5318 11.3504 21.4966 11.2046 21.4285C11.0589 21.3603 10.9299 21.2609 10.8269 21.1372L5.34961 14.5645M12.3715 21.2796L12.1967 21.0688M12.3715 21.2796L12.1967 21.0688C12.1967 21.0688 12.1967 21.0688 12.1967 21.0688M5.34961 14.5645L5.57346 14.4067C5.57146 14.4039 5.56947 14.401 5.5675 14.3982M5.34961 14.5645L5.56 14.3892L5.5675 14.3982M5.34961 14.5645C5.31276 14.5122 5.27981 14.4573 5.25102 14.4002L5.44758 14.204M5.5675 14.3982L11.0373 20.9619L11.0373 20.9619C11.1146 21.0547 11.2113 21.1293 11.3206 21.1804C11.43 21.2315 11.5492 21.2579 11.6699 21.2577L11.6709 21.2577C11.8629 21.2581 12.0489 21.1913 12.1967 21.0688M5.5675 14.3982C5.54079 14.3594 5.51676 14.3189 5.49558 14.2769L5.46517 14.2166L5.44758 14.204M5.44758 14.204L5.42902 14.1571C5.39204 14.0635 5.37255 13.964 5.37153 13.8634C5.37234 13.784 5.38466 13.7052 5.40801 13.6295C5.44036 13.597 5.47064 13.5572 5.49234 13.5076C5.50867 13.4703 5.5169 13.4334 5.521 13.4026C5.53545 13.3773 5.55096 13.3526 5.5675 13.3286L11.0373 6.76491L11.0375 6.76464C11.177 6.59678 11.3775 6.49123 11.5948 6.47119C11.8122 6.45115 12.0286 6.51827 12.1964 6.65779C12.3643 6.7973 12.4698 6.99778 12.4899 7.21512C12.5099 7.43238 12.4428 7.64871 12.3034 7.81654L5.44758 14.204ZM5.44758 14.204L5.4482 14.2056V14.2578C5.4482 14.2677 5.4483 14.271 5.44827 14.271C5.44825 14.271 5.44817 14.2694 5.44796 14.2674C5.4477 14.2649 5.44728 14.2616 5.4466 14.2578C5.44488 14.248 5.44149 14.2344 5.43483 14.2192C5.42617 14.1994 5.41598 14.1859 5.40941 14.1784C5.40532 14.1738 5.40264 14.1715 5.40259 14.1715C5.40255 14.1715 5.40476 14.1734 5.4102 14.1773L5.44758 14.204Z"
          fill="#121416" stroke="black" stroke-width="0.547727" />
      </g>
    </g>
  </g>
</svg>