<svg width="20" height="20" viewBox="0 0 20 20" fill="none" xmlns="http://www.w3.org/2000/svg">
<g id="raphael:lab">
<path id="Vector" d="M13.825 15.2736L11.725 10.3693C11.5188 9.88927 11.35 9.06927 11.35 8.54677C11.35 8.02427 11.6707 7.59677 12.0625 7.59677C12.4544 7.59677 12.775 7.27552 12.775 6.88427C12.775 6.49302 12.3475 6.17177 11.825 6.17177H7.55005C7.02755 6.17177 6.60005 6.49177 6.60005 6.88427C6.60005 7.27677 6.92067 7.59677 7.31255 7.59677C7.70442 7.59677 8.02505 8.02427 8.02505 8.54677C8.02505 9.06927 7.8563 9.88927 7.65005 10.3699L5.55005 15.2749C5.3438 15.7549 5.17505 16.3624 5.17505 16.623C5.17505 16.8836 5.3888 17.3124 5.65005 17.573C5.9113 17.8336 6.55255 18.048 7.07505 18.048H12.3C12.8219 18.048 13.4625 17.8355 13.725 17.573C13.9875 17.3105 14.2 16.8843 14.2 16.623C14.2 16.3618 14.0313 15.7543 13.825 15.2749V15.2736ZM10.3644 4.76552C10.3644 4.94504 10.4357 5.1172 10.5627 5.24414C10.6896 5.37108 10.8618 5.44239 11.0413 5.44239C11.2208 5.44239 11.393 5.37108 11.5199 5.24414C11.6469 5.1172 11.7182 4.94504 11.7182 4.76552C11.7181 4.586 11.6467 4.41387 11.5197 4.28699C11.3927 4.16011 11.2205 4.08887 11.041 4.08896C10.8615 4.08904 10.6893 4.16043 10.5625 4.28743C10.4356 4.41443 10.3643 4.586 10.3644 4.76552ZM8.54255 4.86989C8.62543 4.86989 8.70491 4.83697 8.76352 4.77837C8.82212 4.71976 8.85505 4.64027 8.85505 4.55739C8.85505 4.47451 8.82212 4.39503 8.76352 4.33642C8.70491 4.27782 8.62543 4.24489 8.54255 4.24489C8.45967 4.24489 8.38018 4.27782 8.32158 4.33642C8.26297 4.39503 8.23005 4.47451 8.23005 4.55739C8.23005 4.64027 8.26297 4.71976 8.32158 4.77837C8.38018 4.83697 8.45967 4.86989 8.54255 4.86989ZM9.74067 3.30739C9.8747 3.31405 10.0087 3.29339 10.1345 3.24666C10.2603 3.19994 10.3753 3.12812 10.4725 3.03558C10.5696 2.94305 10.647 2.83171 10.6998 2.70836C10.7527 2.585 10.7799 2.45218 10.7798 2.31799C10.7797 2.18379 10.7523 2.05101 10.6993 1.92772C10.6464 1.80443 10.5689 1.6932 10.4716 1.60078C10.3742 1.50836 10.2592 1.4367 10.1333 1.39013C10.0075 1.34356 9.87345 1.32307 9.73942 1.32989C9.48789 1.34556 9.2518 1.45656 9.07927 1.64027C8.90675 1.82399 8.81079 2.06659 8.81095 2.31861C8.81111 2.57063 8.90738 2.8131 9.08013 2.9966C9.25289 3.1801 9.48912 3.2908 9.74067 3.30614V3.30739Z" fill="#FBF8ED"/>
</g>
</svg>
