<svg width="143" height="42" viewBox="0 0 143 42" fill="none" xmlns="http://www.w3.org/2000/svg">
  <g clip-path="url(#clip0_13_5296)">
    <path
      d="M66.1593 27.8423H79.2795L78.2786 30.3186H78.1652C77.1398 29.1633 75.4098 29.4475 73.2858 29.4475C73.2901 33.0225 73.2919 36.0395 73.2919 38.5019C73.2919 39.5979 73.4924 40.4891 73.7976 40.9608V41.075H70.9812V40.9617C71.2803 40.5606 71.4904 39.8081 71.4904 38.4766C71.4904 35.4108 71.473 31.0432 71.473 29.4475C67.4341 29.3298 67.2876 29.438 66.2727 30.3178H66.1593V27.8423Z"
      fill="#F5F0DC" />
    <path fill-rule="evenodd" clip-rule="evenodd"
      d="M84.4415 27.6339L84.4607 27.5205H85.3867C87.8796 32.5473 90.2879 37.0649 92.609 41.0759H89.8676L89.8293 40.9616C90.0926 40.1786 89.5415 39.257 88.7899 37.8418H81.7576C80.9955 38.5463 79.855 40.149 80.1122 40.9616L80.0739 41.075H77.7292C78.146 40.3957 79.3266 38.2281 81.2693 34.572C82.9365 31.4373 84.8269 28.3532 84.4415 27.6339ZM87.5805 36.2732C87.6555 36.2732 87.8639 36.2749 87.9022 36.179C87.9022 35.9767 85.8017 32.2325 85.1033 30.8662H84.9908C84.8417 31.4905 84.363 32.2753 83.6245 33.6277C82.926 34.9094 82.1988 36.1432 82.2302 36.3106C82.5642 36.2915 84.2531 36.2897 84.8199 36.2845C85.1975 36.2793 86.1182 36.2758 87.5805 36.2732Z"
      fill="#F5F0DC" />
    <path
      d="M112.61 41.2645C111.337 41.2645 110.236 41.0029 109.31 40.4798C108.384 39.9566 107.672 39.1849 107.174 38.1639C106.676 37.1437 106.427 35.9011 106.427 34.4389C106.427 32.6121 106.409 28.8872 106.314 27.9359V27.8408H108.942V27.9542C108.108 28.8008 108.242 31.1656 108.242 32.5668V34.6281C108.242 36.2926 108.627 37.5526 109.396 38.4097C110.164 39.2677 111.243 39.6959 112.629 39.6959C114.003 39.6959 115.079 39.2538 115.861 38.3722C116.643 37.489 117.034 36.1985 117.034 34.4964C117.034 33.4876 117.024 32.5895 117.005 31.8021C116.986 31.0147 116.855 28.609 116.713 27.955V27.8417H118.81V27.9359C118.734 29.0005 118.716 33.0403 118.716 34.4023C118.716 35.8645 118.474 37.1079 117.988 38.1359C117.503 39.1622 116.8 39.9409 115.881 40.4702C114.96 41.0003 113.87 41.2645 112.61 41.2645ZM94.2719 41.1137L94.2527 41.0561C94.5343 37.0251 94.2911 28.3404 94.2527 27.9367V27.8408H96.7857V27.9542C96.1562 28.6238 96.1431 29.8393 96.1431 31.8806C96.1431 34.7903 96.1535 39.2398 96.1623 39.4683C101.152 39.3061 103.496 39.8711 105.408 38.6364H105.444L104.461 41.0195C103.033 41.2636 97.3132 40.8643 94.2719 41.1137Z"
      fill="#F5F0DC" />
    <path fill-rule="evenodd" clip-rule="evenodd"
      d="M60.3748 34.6541L54.034 35.1372C54.3252 36.8689 55.9915 37.1776 56.9367 37.1776C57.6822 37.1776 58.8053 37.2735 60.1385 35.4842H60.3748V37.0738C60.0103 37.4191 59.5377 37.7042 58.957 37.9309C58.3771 38.1568 57.7179 38.271 56.9811 38.271C56.0743 38.271 55.2896 38.1053 54.6269 37.7757C53.9616 37.4461 53.4524 36.991 53.0992 36.4094C52.7435 35.8287 52.5673 35.1695 52.5673 34.4327C52.5673 33.6837 52.7339 33.0201 53.0678 32.4403C53.4021 31.8597 53.8972 31.3882 54.4935 31.0826C55.1064 30.7565 55.8127 30.5952 56.6106 30.5952C57.3203 30.5952 57.9586 30.7434 58.5306 31.0373C59.0793 31.3151 59.545 31.7329 59.8804 32.2484C60.2106 32.7601 60.3962 33.3515 60.4175 33.9601C60.4175 34.2452 60.4036 34.4771 60.3748 34.6541ZM58.9143 33.5468C58.6649 31.8883 57.2453 31.6869 56.6245 31.6869C55.927 31.6869 54.2659 32.0147 54.0444 33.947C54.9109 33.8983 55.7765 33.8361 56.6411 33.7604C57.3883 33.6871 58.1461 33.6156 58.9143 33.5468ZM42.9436 34.8608C42.9436 33.9452 43.1014 33.1692 43.4162 32.5362C43.7301 31.9014 44.1861 31.4201 44.7808 31.0887C45.3763 30.7609 46.0783 30.5952 46.8848 30.5952C47.3278 30.5952 47.7498 30.6432 48.1535 30.7347C48.5564 30.8289 48.8964 30.944 49.172 31.0835C49.1929 30.7417 49.2016 30.3737 49.2016 29.9822C49.2016 28.9969 49.2347 28.2174 48.8476 27.8791H48.8328V27.791H50.6028V27.866C50.5121 28.288 50.5139 30.9353 50.5156 32.204C50.5182 33.695 50.4973 37.3293 50.5444 38.1672H49.335L49.2461 36.5881H49.172C48.806 37.0696 48.3499 37.4753 47.8291 37.7827C47.2877 38.1079 46.6729 38.271 45.985 38.271C45.3851 38.271 44.8549 38.1358 44.398 37.8716C43.9402 37.6057 43.5836 37.2177 43.3273 36.7058C43.0718 36.194 42.9436 35.5784 42.9436 34.8608ZM44.3597 34.8608C44.3597 35.6368 44.5122 36.2176 44.8183 36.6012C45.1226 36.9849 45.5272 37.1767 46.0294 37.1767C46.4515 37.1767 46.8752 37.0546 47.2981 36.8096C47.7273 36.5578 48.1092 36.2329 48.4264 35.8496C48.756 35.4572 49.0106 35.0561 49.1868 34.655V32.4839C48.9609 32.2484 48.6549 32.0566 48.2712 31.9084C47.8876 31.7601 47.4603 31.6869 46.9877 31.6869C46.4471 31.6869 45.9789 31.8055 45.5839 32.0418C45.1932 32.2772 44.8889 32.6321 44.677 33.1038C44.466 33.5764 44.3597 34.1624 44.3597 34.8608Z"
      fill="#F5F0DC" />
    <path
      d="M136.572 20.9722C135.298 20.9722 134.198 20.7106 133.272 20.1875C132.346 19.6652 131.634 18.8926 131.136 17.8724C130.638 16.8514 130.389 15.6106 130.389 14.1492C130.389 12.3198 130.371 8.59486 130.275 7.64443V7.55113H132.904V7.66362C132.069 8.50941 132.204 10.875 132.204 12.278V14.3384C132.204 16.0012 132.588 17.2612 133.358 18.1192C134.125 18.9763 135.204 19.4044 136.591 19.4044C137.964 19.4044 139.041 18.9632 139.823 18.0808C140.604 17.2001 140.995 15.907 140.995 14.2059C140.995 13.1961 140.987 12.2989 140.967 11.5115C140.948 10.7242 140.817 8.31758 140.675 7.66362V7.55113H142.772V7.64618C142.697 8.70996 142.677 12.7506 142.677 14.1108C142.677 15.5731 142.436 16.8182 141.949 17.8445C141.465 18.8717 140.762 19.6495 139.842 20.1796C138.922 20.7089 137.832 20.9722 136.572 20.9722ZM56.3935 15.8382C55.3384 17.5768 54.047 18.4645 53.4027 18.7941C52.5604 19.2239 51.6143 19.4393 50.5618 19.4393C49.4109 19.4393 48.3994 19.2178 47.5309 18.7749C46.6642 18.3319 45.9998 17.7146 45.5377 16.9229C45.0755 16.1311 44.8427 15.2287 44.8427 14.2155C44.8427 13.2022 45.0747 12.2998 45.5377 11.508C45.9998 10.7163 47.4071 8.95846 50.4293 8.95846C53.7645 8.95846 55.8755 11.3616 56.3935 12.4219H56.7187V9.94028C56.1615 9.24272 55.3323 8.64195 54.2293 8.13447C53.1263 7.62874 51.8663 7.375 50.4485 7.375C48.954 7.375 47.6391 7.67321 46.5064 8.26875C45.372 8.86342 44.4948 9.68131 43.874 10.7189C43.254 11.7574 42.9436 12.9224 42.9436 14.2155C42.9436 15.5059 43.254 16.6717 43.874 17.7102C44.4948 18.7496 45.372 19.5666 46.5064 20.1622C47.6399 20.7568 48.954 21.055 50.4485 21.055C51.8663 21.055 53.1263 20.8022 54.2301 20.2947C55.3314 19.7881 56.1615 19.1873 56.7187 18.4898V15.839H56.3935V15.8382ZM59.7609 20.6888C59.7976 20.0593 59.8263 19.1865 59.8455 18.0704C59.8647 16.9543 59.8734 15.5914 59.8734 13.9783C59.8734 12.2771 59.8647 10.9064 59.8455 9.86616C59.8263 8.8268 59.7976 8.08477 59.7609 7.6453V7.55026H62.2373V7.66274C62.0505 7.8987 61.9181 8.17288 61.8492 8.46581C61.7673 8.78843 61.7132 9.17209 61.6888 9.6194C61.6627 10.0676 61.7132 13.3339 61.7272 13.4865C61.8275 13.4865 65.4905 13.4342 66.0058 13.4342C66.672 13.4342 69.7413 13.5632 70.5557 13.0697C70.5539 10.943 70.3778 8.75966 70.2906 7.66274V7.55026H72.4269V7.6453C72.4016 8.09872 72.3798 8.8608 72.3606 9.93156C72.3432 11.0041 72.3318 12.5413 72.3318 14.5442C72.3318 16.234 72.3423 17.5829 72.3606 18.59C72.3798 19.5989 72.4077 20.2991 72.4461 20.6888V20.783H69.988V20.6714C70.1792 20.2209 70.31 19.7471 70.3769 19.2623C70.4449 18.7644 70.4885 18.175 70.5077 17.494C70.5269 16.813 70.5356 15.9812 70.5356 14.9976H62.3428C62.13 14.9976 61.6574 14.9627 61.6504 15.4929C61.6417 16.2576 61.6609 16.9516 61.6801 17.6466C61.6993 18.3389 61.7298 18.9397 61.7725 19.4515C61.8187 19.9607 61.8772 20.3679 61.953 20.6714V20.783H59.7609V20.6888Z"
      fill="#F5F0DC" />
    <path fill-rule="evenodd" clip-rule="evenodd"
      d="M80.8395 7.34187L80.8586 7.22852H81.7847C84.2767 12.2553 86.6842 16.7729 89.0062 20.7839H86.2647L86.2281 20.6705C86.4906 19.8866 85.9386 18.965 85.1879 17.5498H78.1538C77.3935 18.2543 76.2521 19.857 76.5102 20.6714L76.4719 20.783H74.1281C74.544 20.1037 75.7237 17.9361 77.6664 14.28C79.3327 11.1453 81.224 8.06123 80.8395 7.34187ZM83.9785 15.9812C84.0535 15.9812 84.2601 15.9829 84.2985 15.887C84.2985 15.6847 82.1997 11.9405 81.5013 10.5759H81.3879C81.2397 11.1985 80.761 11.9833 80.0224 13.3374C79.324 14.6166 78.5977 15.8512 78.6282 16.0195C78.9622 15.9995 80.6511 15.9977 81.2179 15.9916C81.5954 15.9873 82.5162 15.9846 83.9785 15.9812Z"
      fill="#F5F0DC" />
    <path
      d="M88.0418 7.55127H101.164L100.161 10.0259H100.047C99.0223 8.8714 97.2923 9.1574 95.17 9.1574C95.1726 12.7307 95.1744 15.7485 95.1744 18.21C95.1744 19.306 95.3767 20.1972 95.681 20.6715V20.7831H92.8628V20.6715C93.1628 20.2696 93.372 19.5162 93.372 18.1856C93.372 15.1189 93.3546 10.7513 93.3546 9.1574C89.3166 9.03795 89.1701 9.14607 88.1552 10.0259H88.0418V7.55127ZM102.94 20.7465C103.034 19.654 103.053 15.5532 103.053 13.9784C103.053 12.3139 103.042 8.68829 102.94 7.58702V7.55127H113.433V9.74335H113.394C112.313 8.89146 109.517 9.13909 104.794 9.13909C104.805 9.74336 104.814 10.3712 104.822 11.0199C104.828 11.6695 104.83 12.354 104.83 13.0707H104.869C105.17 13.0324 105.575 13.0079 106.078 12.9957C106.414 12.987 108.159 12.9809 111.314 12.9766L110.011 15.0753H109.954C107.663 14.6472 105.548 14.5129 105.19 14.5278C104.824 15.3125 104.83 18.2205 104.83 18.9137C105.214 19.0663 107.106 19.2101 109.098 19.1979C110.718 19.1892 112.405 19.1081 113.394 18.591H113.433V20.8032L102.94 20.784V20.7474V20.7465Z"
      fill="#F5F0DC" />
    <path fill-rule="evenodd" clip-rule="evenodd"
      d="M121.165 7.34187L121.183 7.22852H122.11C124.603 12.2553 127.01 16.7729 129.332 20.7839H126.591L126.552 20.6705C126.817 19.8866 126.265 18.965 125.512 17.5498H118.48C117.718 18.2543 116.578 19.857 116.836 20.6714L116.798 20.783H114.454C114.87 20.1037 116.049 17.9361 117.992 14.28C119.659 11.1453 121.55 8.06123 121.165 7.34187ZM124.303 15.9812C124.379 15.9812 124.586 15.9829 124.624 15.887C124.624 15.6847 122.525 11.9405 121.827 10.5759H121.714C121.566 11.1985 121.087 11.9833 120.348 13.3374C119.648 14.6166 118.922 15.8512 118.953 16.0195C119.288 15.9995 120.976 15.9977 121.544 15.9916C121.921 15.9873 122.84 15.9846 124.303 15.9812Z"
      fill="#F5F0DC" />
    <path
      d="M60.4175 41.075H42.9436V39.8848H60.4175V41.075ZM28.8302 39.9702H1.43V20.3932L0 19.1489V41.4011H30.2602V36.0831L28.8302 37.2689V39.9702Z"
      fill="#F5F0DC" />
    <path
      d="M30.0283 11.39C25.9644 7.65963 20.6474 5.59224 15.131 5.59767C9.614 5.59189 4.29625 7.6593 0.231939 11.39L0 11.6019V15.7629L1.43 14.5596V12.2332C5.02767 9.03577 9.61588 7.22647 14.416 7.05906V29.1229L15.1231 29.8309L15.846 29.1098V7.05993C20.6452 7.22735 25.2308 9.03664 28.8302 12.2341V14.5596L30.2602 15.7629V11.6019L30.0283 11.39Z"
      fill="#F5F0DC" />
    <path fill-rule="evenodd" clip-rule="evenodd"
      d="M29.9838 22.4659C30.0631 23.3448 28.3489 24.617 26.8142 23.6579C26.6137 23.5397 26.4485 23.37 26.3358 23.1663C26.2231 22.9627 26.167 22.7326 26.1734 22.4999C25.8228 22.595 25.3773 22.5653 24.9369 22.3848C24.7685 22.3156 24.6092 22.226 24.4626 22.118C24.8349 22.8129 25.5089 23.2507 25.8926 24.0258C26.3975 25.046 25.8185 25.8159 25.4244 26.2755C25.0416 26.7202 24.8558 27.6636 24.7669 29.2872C24.7603 29.4123 24.7929 29.5364 24.8602 29.6421C26.2719 31.8769 26.8657 34.8528 26.8657 37.9151V38.039C25.9545 38.0669 24.8497 38.0965 23.5575 38.1218L23.4311 38.086C23.0727 37.8454 22.2496 37.3309 21.7979 37.3649C21.2617 37.4068 20.4996 36.8958 20.3182 36.7371L20.2921 36.6979C19.904 35.5321 19.6058 33.2842 19.4079 32.3992C19.3669 32.2117 19.1986 32.1045 18.5412 32.2178C17.7111 32.3626 17.6753 32.7148 17.7006 32.809C17.9395 33.6984 19.189 36.8514 19.2326 36.9394C19.5247 37.5393 19.8604 38.0407 20.2964 38.1715C16.3122 38.2166 12.3277 38.2087 8.34371 38.1479C8.67243 38.0015 8.96366 37.5289 9.13544 36.8854L9.1398 36.8766C9.30547 36.268 9.44672 35.7466 9.56967 35.2871C9.59618 35.2318 9.61495 35.1731 9.62547 35.1127C9.79202 34.4805 9.95943 33.8396 10.1295 33.1892L10.1338 33.1717C10.3518 32.3346 10.5724 31.4819 10.6396 31.2029C10.7407 30.7756 10.8009 30.4233 10.8192 30.1391C10.8602 29.9045 10.8262 26.4769 11.1854 23.691C11.3214 22.629 8.46491 23.0083 8.58698 23.8889C8.87647 25.9694 8.94012 29.016 8.95233 29.7048C8.79538 30.2577 8.67766 31.3441 8.5957 32.38C8.59308 32.3922 8.58698 32.4027 8.58611 32.4175C8.49281 33.3182 8.49891 34.3707 8.08212 36.5619C8.08212 36.5688 8.0795 36.5732 8.07776 36.581C8.04637 36.8095 7.31393 37.3641 6.73321 37.3196C6.28764 37.2847 5.49678 37.7608 5.09569 38.0267C5.04145 38.0616 4.97791 38.0793 4.91345 38.0773C4.36412 38.0642 3.85839 38.0494 3.398 38.0355V37.9143C3.398 35.6699 4.56641 32.1821 7.36974 29.615C7.41554 29.5739 7.45177 29.5232 7.47587 29.4666C7.49997 29.4099 7.51137 29.3487 7.50925 29.2872C7.42728 27.6732 6.82913 26.3156 6.44808 25.8726C6.05222 25.4114 5.47324 24.6423 5.97897 23.623C6.26846 23.0388 7.41159 22.2209 8.01062 21.0132C3.68923 22.0142 2.51471 18.5491 0.197937 17.6658C0.258974 17.4129 0.760346 16.6378 1.70292 16.2053C3.23756 15.5008 4.24205 16.5567 5.78976 14.2748C6.91196 12.6198 8.13356 11.9807 9.23571 11.8743C9.75079 11.784 10.2794 11.8075 10.7844 11.9431C11.2895 12.0788 11.7587 12.3233 12.1592 12.6596C12.5597 12.9958 12.8818 13.4157 13.1028 13.8896C13.3238 14.3636 13.4384 14.8802 13.4385 15.4031C13.4385 17.0633 12.3076 18.4549 10.7764 18.8621C10.7676 18.8609 10.7588 18.8589 10.7503 18.856C10.3597 18.536 9.94635 18.0974 9.54264 17.3789C9.53733 17.3691 9.53487 17.358 9.53552 17.3468C9.53618 17.3357 9.53994 17.3249 9.54636 17.3158C9.55279 17.3066 9.56164 17.2994 9.57192 17.2951C9.58219 17.2907 9.59349 17.2892 9.60455 17.2909C10.3239 17.4339 11.3702 15.656 10.5 15.7414C10.0789 15.7841 9.85567 15.9768 9.33163 15.6193C8.56082 15.0962 8.11264 13.4264 8.02021 13.0453C8.01149 13.0061 7.96702 12.9895 7.93302 13.0113C7.86873 13.0565 7.80563 13.1033 7.7438 13.1517C7.53031 13.3237 7.36332 13.5465 7.25807 13.7996C7.15282 14.0528 7.11267 14.3282 7.14128 14.6009C7.17965 14.9837 6.99916 15.1825 6.26846 15.799C6.27108 15.9925 6.35653 16.1591 6.52656 16.3012C6.37135 16.6823 6.34955 17.0598 6.46291 17.4382C6.44285 17.8568 6.2859 18.1009 6.74978 18.2526C7.16308 18.3878 7.55895 18.3773 7.84582 18.4706C7.91558 18.4933 7.97574 18.5421 8.02283 18.5962C8.83374 19.5475 8.79276 19.803 8.69772 20.2067C9.04824 19.9538 9.48422 19.8047 10.0231 19.8047C10.7939 19.8047 11.5106 20.2372 12.3451 20.2372L12.3477 20.2389C13.3888 21.8459 13.0226 24.1697 12.1969 26.4394C11.7025 27.7996 11.6283 28.5356 11.6214 28.9044L11.6458 29.0177C12.5701 31.0128 14.1291 32.8308 15.6977 34.3044C15.757 34.3593 15.8495 34.334 15.8791 34.259C16.2332 33.3427 16.7248 32.4856 17.337 31.7173C17.3471 31.7046 17.3544 31.6898 17.3583 31.674C17.3622 31.6582 17.3627 31.6417 17.3597 31.6258C17.2428 31.0075 17.0859 30.6021 17.0449 30.4286C16.8871 29.7868 16.7877 29.3665 16.8583 28.9741C16.9577 28.4144 16.99 28.2783 17.153 26.7202C17.4565 23.8166 17.4181 23.9343 17.4347 23.4294C17.4661 22.4005 17.4818 19.6085 19.1332 19.9364C19.2954 19.9686 19.6869 20.0244 20.3147 20.279C21.3 20.6793 22.8216 21.2269 23.4067 21.3359C23.4581 21.3446 23.5436 21.3585 23.5863 21.3376C23.6177 21.3219 23.6194 21.2853 23.6098 21.2548C23.5962 21.2158 23.5755 21.1798 23.5488 21.1484C23.2349 20.7865 23.2436 20.5153 23.241 20.4308C23.2279 20.0584 23.4215 19.7838 23.5549 19.5222C23.8278 19.7001 24.1914 19.8989 24.5228 20.0114C24.9849 20.1683 25.0076 19.8788 25.2395 19.5318C25.5569 19.2946 25.767 18.979 25.8699 18.5814C25.8699 18.5814 26.2013 18.5622 26.3783 18.332C26.1481 17.3589 26.1315 17.1113 26.4332 16.8087C26.7489 16.493 26.9084 16.0457 26.8378 15.6054C26.8085 15.4353 26.7653 15.2679 26.7087 15.1049C26.6957 15.0648 26.6512 15.0526 26.6189 15.0787C26.3164 15.329 24.9605 16.3989 24.0292 16.3588C23.3962 16.3309 23.3325 16.0422 23.0195 15.7562C22.417 15.2078 22.1964 16.9726 22.7082 17.474L22.7091 17.4766C22.5896 17.9082 22.2958 18.2936 21.9366 18.6293C21.9177 18.6464 21.8944 18.6576 21.8694 18.6618C21.8443 18.666 21.8186 18.6629 21.7953 18.6529C21.0362 18.3078 20.4214 17.7087 20.0568 16.9587C19.6923 16.2088 19.6009 15.3552 19.7985 14.5451C20.0871 13.3043 21.0402 12.2937 22.2688 11.9571C24.228 11.4192 26.0295 12.5004 26.6425 14.158C26.667 14.2234 26.7135 14.2783 26.7741 14.3132C27.2606 14.587 27.6586 14.9941 27.9214 15.4866C28.1842 15.979 28.3008 16.5363 28.2575 17.0928C28.2141 17.6494 28.0127 18.1819 27.6768 18.6277C27.3409 19.0736 26.8847 19.4142 26.3617 19.6094C26.6425 19.8492 26.8701 20.245 26.9642 20.7229C26.9939 20.8781 27 21.1388 27.0017 21.2565C27.0016 21.2642 27.0032 21.2718 27.0063 21.2788C27.0095 21.2858 27.0142 21.292 27.02 21.297C27.0258 21.302 27.0327 21.3056 27.04 21.3077C27.0474 21.3097 27.0552 21.3101 27.0628 21.3088C27.2424 21.2818 27.6313 21.144 28.2939 21.4501C29.0944 21.8207 29.1833 22.4659 29.9838 22.4659ZM19.1193 29.86C19.121 29.8692 19.1251 29.8778 19.131 29.885C19.137 29.8922 19.1447 29.8978 19.1533 29.9013C19.162 29.9048 19.1714 29.906 19.1807 29.9049C19.19 29.9038 19.1989 29.9004 19.2065 29.8949C19.6501 29.5566 20.1251 29.2617 20.6251 29.0143C20.6464 29.0049 20.6637 28.9885 20.6742 28.9679C20.6847 28.9472 20.6877 28.9235 20.6827 28.9009C20.5719 28.3777 20.0723 27.5973 19.6076 26.326C19.5884 26.2755 19.516 26.2737 19.5038 26.3269C19.3966 26.7978 19.1271 27.9819 18.9946 28.6236C18.9798 28.6977 18.9676 29.0945 19.1193 29.86Z"
      fill="#F5F0DC" />
    <path
      d="M85.6343 4.56554C83.5783 3.00474 82.5346 1.6602 81.8222 0H81.0479C80.3381 1.6602 79.2918 3.00474 77.2375 4.56554V5.36773C78.8549 4.75475 80.3835 3.76945 81.4499 2.6455C82.518 3.76945 84.0169 4.75475 85.6352 5.36773L85.6343 4.56554Z"
      fill="#F5F0DC" />
  </g>
  <defs>
    <clipPath id="clip0_13_5296">
      <rect width="143" height="41.8537" fill="white" />
    </clipPath>
  </defs>
</svg>